<svg xmlns="http://www.w3.org/2000/svg" viewBox="0 0 1200 780" role="img" aria-label="Office renovation project cover placeholder">
  <defs>
    <linearGradient id="g" x1="0" x2="1" y1="0" y2="1">
      <stop stop-color="#fbf8f2"/>
      <stop offset="1" stop-color="#ebe0cf"/>
    </linearGradient>
  </defs>
  <rect width="1200" height="780" fill="url(#g)"/>
  <path d="M120 610h960V180H120z" fill="#fffaf2" stroke="#c3923c" stroke-width="10"/>
  <path d="M170 560h860M170 505h860M170 450h860" stroke="#d8c5a7" stroke-width="4"/>
  <path d="M240 180v430M430 180v430M660 180v430M910 180v430" stroke="#d8c5a7" stroke-width="4"/>
  <rect x="240" y="300" width="365" height="160" rx="18" fill="#24282c" opacity=".9"/>
  <rect x="650" y="300" width="250" height="160" rx="18" fill="#c3923c" opacity=".82"/>
  <path d="M270 360h300M270 405h240M680 360h170M680 405h135" stroke="#fbf8f2" stroke-width="18" stroke-linecap="round"/>
  <circle cx="965" cy="238" r="42" fill="#c3923c" opacity=".24"/>
  <path d="M930 238h70M965 203v70" stroke="#ad7822" stroke-width="12" stroke-linecap="round"/>
</svg>
